<?xml version="1.0" encoding="UTF-8" standalone="no"?>
<!DOCTYPE svg PUBLIC "-//W3C//DTD SVG 1.1//EN"
 "http://www.w3.org/Graphics/SVG/1.1/DTD/svg11.dtd">
<!-- Generated by graphviz version 2.43.0 (0)
 -->
<!-- Title: G Pages: 1 -->
<svg width="626pt" height="567pt"
 viewBox="0.00 0.00 625.53 567.28" xmlns="http://www.w3.org/2000/svg" xmlns:xlink="http://www.w3.org/1999/xlink">
<g id="graph0" class="graph" transform="scale(1 1) rotate(0) translate(4 563.28)">
<title>G</title><style>.edge>path:hover{stroke-width:8}</style>
<polygon fill="white" stroke="transparent" points="-4,4 -4,-563.28 621.53,-563.28 621.53,4 -4,4"/>
<!-- bs4 -->
<g id="node1" class="node">
<title>bs4</title><style>.edge>path:hover{stroke-width:8}</style>
<ellipse fill="#ce3b3b" stroke="black" cx="305.93" cy="-462.85" rx="27" ry="18"/>
<text text-anchor="middle" x="305.93" y="-460.35" font-family="Helvetica,sans-Serif" font-size="10.00" fill="#ffffff">bs4</text>
</g>
<!-- vkimexp_common -->
<g id="node12" class="node">
<title>vkimexp_common</title><style>.edge>path:hover{stroke-width:8}</style>
<ellipse fill="#4505e5" stroke="black" cx="360.93" cy="-318.85" rx="55.17" ry="18"/>
<text text-anchor="middle" x="360.93" y="-316.35" font-family="Helvetica,sans-Serif" font-size="10.00" fill="#ffffff">vkimexp.common</text>
</g>
<!-- bs4&#45;&gt;vkimexp_common -->
<g id="edge1" class="edge">
<title>bs4&#45;&gt;vkimexp_common</title><style>.edge>path:hover{stroke-width:8}</style>
<path fill="none" stroke="black" d="M324.46,-449.66C340.89,-437.19 362.12,-416.24 360.93,-391.85"/>
<path fill="none" stroke="black" d="M360.93,-389.85C360.25,-375.82 360.19,-360.18 360.32,-347.25"/>
<polygon fill="#ce3b3b" stroke="black" points="363.82,-347.17 360.47,-337.12 356.82,-347.07 363.82,-347.17"/>
</g>
<!-- vkimexp_handler -->
<g id="node14" class="node">
<title>vkimexp_handler</title><style>.edge>path:hover{stroke-width:8}</style>
<ellipse fill="#5435a1" stroke="black" cx="458.93" cy="-243.64" rx="39.7" ry="21.43"/>
<text text-anchor="middle" x="458.93" y="-246.64" font-family="Helvetica,sans-Serif" font-size="10.00" fill="#ffffff">vkimexp.</text>
<text text-anchor="middle" x="458.93" y="-235.64" font-family="Helvetica,sans-Serif" font-size="10.00" fill="#ffffff">handler</text>
</g>
<!-- bs4&#45;&gt;vkimexp_handler -->
<g id="edge2" class="edge">
<title>bs4&#45;&gt;vkimexp_handler</title><style>.edge>path:hover{stroke-width:8}</style>
<path fill="none" stroke="black" d="M323.85,-449.3C338.15,-439 358.46,-423.74 374.93,-408.85 385.02,-399.74 458.93,-333.45 458.93,-319.85"/>
<path fill="none" stroke="black" d="M458.93,-317.85C459.06,-303.95 459.08,-288.56 459.06,-275.5"/>
<polygon fill="#ce3b3b" stroke="black" points="462.56,-275.14 459.03,-265.15 455.56,-275.16 462.56,-275.14"/>
</g>
<!-- vkimexp_writer -->
<g id="node16" class="node">
<title>vkimexp_writer</title><style>.edge>path:hover{stroke-width:8}</style>
<ellipse fill="#5c3ab0" stroke="black" cx="217.93" cy="-243.64" rx="47.19" ry="18"/>
<text text-anchor="middle" x="217.93" y="-241.14" font-family="Helvetica,sans-Serif" font-size="10.00" fill="#ffffff">vkimexp.writer</text>
</g>
<!-- bs4&#45;&gt;vkimexp_writer -->
<g id="edge3" class="edge">
<title>bs4&#45;&gt;vkimexp_writer</title><style>.edge>path:hover{stroke-width:8}</style>
<path fill="none" stroke="black" d="M284.68,-451.53C268.72,-442.58 247.81,-428.04 236.93,-408.85 212.55,-365.82 212.39,-306.3 214.88,-272"/>
<polygon fill="#ce3b3b" stroke="black" points="218.39,-272.06 215.76,-261.8 211.42,-271.46 218.39,-272.06"/>
</g>
<!-- click -->
<g id="node2" class="node">
<title>click</title><style>.edge>path:hover{stroke-width:8}</style>
<ellipse fill="#c2b147" stroke="black" cx="53.93" cy="-318.85" rx="27" ry="18"/>
<text text-anchor="middle" x="53.93" y="-316.35" font-family="Helvetica,sans-Serif" font-size="10.00" fill="#000000">click</text>
</g>
<!-- vkimexp_cli -->
<g id="node11" class="node">
<title>vkimexp_cli</title><style>.edge>path:hover{stroke-width:8}</style>
<ellipse fill="#5838a8" stroke="black" cx="217.93" cy="-96.43" rx="38.7" ry="18"/>
<text text-anchor="middle" x="217.93" y="-93.93" font-family="Helvetica,sans-Serif" font-size="10.00" fill="#ffffff">vkimexp.cli</text>
</g>
<!-- click&#45;&gt;vkimexp_cli -->
<g id="edge4" class="edge">
<title>click&#45;&gt;vkimexp_cli</title><style>.edge>path:hover{stroke-width:8}</style>
<path fill="none" stroke="black" d="M45.04,-301.6C38.03,-286.59 30.43,-263.79 36.93,-244.64"/>
<path fill="none" stroke="black" d="M36.93,-242.64C47.4,-211.83 15.48,-193.89 36.93,-169.43"/>
</g>
<!-- vkimexp_core -->
<g id="node13" class="node">
<title>vkimexp_core</title><style>.edge>path:hover{stroke-width:8}</style>
<ellipse fill="#503399" stroke="black" cx="217.93" cy="-168.43" rx="44.3" ry="18"/>
<text text-anchor="middle" x="217.93" y="-165.93" font-family="Helvetica,sans-Serif" font-size="10.00" fill="#ffffff">vkimexp.core</text>
</g>
<!-- click&#45;&gt;vkimexp_core -->
<g id="edge5" class="edge">
<title>click&#45;&gt;vkimexp_core</title><style>.edge>path:hover{stroke-width:8}</style>
<path fill="none" stroke="black" d="M36.93,-242.64C53.85,-192.85 116.72,-176.52 163.64,-171.38"/>
<polygon fill="#c2b147" stroke="black" points="164.07,-174.86 173.69,-170.42 163.4,-167.89 164.07,-174.86"/>
</g>
<!-- pytermor -->
<g id="node3" class="node">
<title>pytermor</title><style>.edge>path:hover{stroke-width:8}</style>
<ellipse fill="#6ac247" stroke="black" cx="277.93" cy="-390.85" rx="32.25" ry="18"/>
<text text-anchor="middle" x="277.93" y="-388.35" font-family="Helvetica,sans-Serif" font-size="10.00" fill="#000000">pytermor</text>
</g>
<!-- vkimexp_printer -->
<g id="node15" class="node">
<title>vkimexp_printer</title><style>.edge>path:hover{stroke-width:8}</style>
<ellipse fill="#603db8" stroke="black" cx="322.93" cy="-243.64" rx="39.7" ry="21.43"/>
<text text-anchor="middle" x="322.93" y="-246.64" font-family="Helvetica,sans-Serif" font-size="10.00" fill="#ffffff">vkimexp.</text>
<text text-anchor="middle" x="322.93" y="-235.64" font-family="Helvetica,sans-Serif" font-size="10.00" fill="#ffffff">printer</text>
</g>
<!-- pytermor&#45;&gt;vkimexp_printer -->
<g id="edge6" class="edge">
<title>pytermor&#45;&gt;vkimexp_printer</title><style>.edge>path:hover{stroke-width:8}</style>
<path fill="none" stroke="black" d="M277.93,-317.85C277.06,-300.21 286.62,-283.22 297.15,-270.06"/>
<polygon fill="#6ac247" stroke="black" points="299.88,-272.25 303.75,-262.39 294.58,-267.68 299.88,-272.25"/>
</g>
<!-- pytermor&#45;&gt;vkimexp_writer -->
<g id="edge7" class="edge">
<title>pytermor&#45;&gt;vkimexp_writer</title><style>.edge>path:hover{stroke-width:8}</style>
<path fill="none" stroke="black" d="M278.41,-372.58C278.69,-358.41 278.83,-337.82 277.93,-319.85"/>
<path fill="none" stroke="black" d="M277.93,-317.85C276.91,-297.36 262.61,-279.44 248.23,-266.45"/>
<polygon fill="#6ac247" stroke="black" points="250.21,-263.55 240.31,-259.77 245.69,-268.89 250.21,-263.55"/>
</g>
<!-- requests -->
<g id="node4" class="node">
<title>requests</title><style>.edge>path:hover{stroke-width:8}</style>
<ellipse fill="#3db883" stroke="black" cx="458.93" cy="-390.85" rx="31.58" ry="18"/>
<text text-anchor="middle" x="458.93" y="-388.35" font-family="Helvetica,sans-Serif" font-size="10.00" fill="#000000">requests</text>
</g>
<!-- requests&#45;&gt;vkimexp_handler -->
<g id="edge8" class="edge">
<title>requests&#45;&gt;vkimexp_handler</title><style>.edge>path:hover{stroke-width:8}</style>
<path fill="none" stroke="black" d="M458.93,-372.59C458.93,-358.42 458.93,-337.84 458.93,-319.85"/>
</g>
<!-- urllib3 -->
<g id="node5" class="node">
<title>urllib3</title><style>.edge>path:hover{stroke-width:8}</style>
<ellipse fill="#2487d0" stroke="black" cx="436.93" cy="-462.85" rx="27" ry="18"/>
<text text-anchor="middle" x="436.93" y="-460.35" font-family="Helvetica,sans-Serif" font-size="10.00" fill="#ffffff">urllib3</text>
</g>
<!-- urllib3&#45;&gt;requests -->
<g id="edge9" class="edge">
<title>urllib3&#45;&gt;requests</title><style>.edge>path:hover{stroke-width:8}</style>
<path fill="none" stroke="black" d="M442.26,-444.91C444.77,-436.91 447.83,-427.18 450.64,-418.25"/>
<polygon fill="#2487d0" stroke="black" points="454,-419.23 453.66,-408.64 447.32,-417.13 454,-419.23"/>
</g>
<!-- urllib3&#45;&gt;vkimexp_common -->
<g id="edge10" class="edge">
<title>urllib3&#45;&gt;vkimexp_common</title><style>.edge>path:hover{stroke-width:8}</style>
<path fill="none" stroke="black" d="M414.69,-452.41C392.77,-441.45 362.35,-421.06 360.93,-391.85"/>
</g>
<!-- urllib3&#45;&gt;vkimexp_handler -->
<g id="edge11" class="edge">
<title>urllib3&#45;&gt;vkimexp_handler</title><style>.edge>path:hover{stroke-width:8}</style>
<path fill="none" stroke="black" d="M460.33,-453.83C485.53,-443.53 521.71,-423.18 518.93,-391.85"/>
<path fill="none" stroke="black" d="M518.93,-389.85C515.31,-349.04 458.93,-360.83 458.93,-319.85"/>
</g>
<!-- urllib3_util -->
<g id="node6" class="node">
<title>urllib3_util</title><style>.edge>path:hover{stroke-width:8}</style>
<ellipse fill="#3b8fce" stroke="black" cx="436.93" cy="-538.07" rx="34.29" ry="18"/>
<text text-anchor="middle" x="436.93" y="-535.57" font-family="Helvetica,sans-Serif" font-size="10.00" fill="#ffffff">urllib3.util</text>
</g>
<!-- urllib3_util&#45;&gt;urllib3 -->
<g id="edge12" class="edge">
<title>urllib3_util&#45;&gt;urllib3</title><style>.edge>path:hover{stroke-width:8}</style>
<path fill="none" stroke="black" d="M436.93,-519.72C436.93,-511.24 436.93,-500.83 436.93,-491.31"/>
<polygon fill="#3b8fce" stroke="black" points="440.43,-491.08 436.93,-481.08 433.43,-491.08 440.43,-491.08"/>
</g>
<!-- urllib3_util&#45;&gt;vkimexp_common -->
<g id="edge13" class="edge">
<title>urllib3_util&#45;&gt;vkimexp_common</title><style>.edge>path:hover{stroke-width:8}</style>
<path fill="none" stroke="black" d="M422.88,-521.48C401.62,-496.29 363.47,-444.15 360.93,-391.85"/>
</g>
<!-- urllib3_util&#45;&gt;vkimexp_handler -->
<g id="edge14" class="edge">
<title>urllib3_util&#45;&gt;vkimexp_handler</title><style>.edge>path:hover{stroke-width:8}</style>
<path fill="none" stroke="black" d="M453.45,-522.06C478.74,-497.28 523.67,-445.2 518.93,-391.85"/>
</g>
<!-- vkimexp -->
<g id="node7" class="node">
<title>vkimexp</title><style>.edge>path:hover{stroke-width:8}</style>
<ellipse fill="#5b31c4" stroke="black" cx="577.93" cy="-462.85" rx="31.4" ry="18"/>
<text text-anchor="middle" x="577.93" y="-460.35" font-family="Helvetica,sans-Serif" font-size="10.00" fill="#ffffff">vkimexp</text>
</g>
<!-- vkimexp___main__ -->
<g id="node8" class="node">
<title>vkimexp___main__</title><style>.edge>path:hover{stroke-width:8}</style>
<ellipse fill="#6549ac" stroke="black" cx="217.93" cy="-21.21" rx="41.94" ry="21.43"/>
<text text-anchor="middle" x="217.93" y="-24.21" font-family="Helvetica,sans-Serif" font-size="10.00" fill="#ffffff">vkimexp.</text>
<text text-anchor="middle" x="217.93" y="-13.21" font-family="Helvetica,sans-Serif" font-size="10.00" fill="#ffffff">__main__</text>
</g>
<!-- vkimexp__version -->
<g id="node9" class="node">
<title>vkimexp__version</title><style>.edge>path:hover{stroke-width:8}</style>
<ellipse fill="#6a47c2" stroke="black" cx="577.93" cy="-538.07" rx="39.7" ry="21.43"/>
<text text-anchor="middle" x="577.93" y="-541.07" font-family="Helvetica,sans-Serif" font-size="10.00" fill="#ffffff">vkimexp.</text>
<text text-anchor="middle" x="577.93" y="-530.07" font-family="Helvetica,sans-Serif" font-size="10.00" fill="#ffffff">_version</text>
</g>
<!-- vkimexp__version&#45;&gt;vkimexp -->
<g id="edge15" class="edge">
<title>vkimexp__version&#45;&gt;vkimexp</title><style>.edge>path:hover{stroke-width:8}</style>
<path fill="none" stroke="black" d="M577.93,-516.67C577.93,-508.82 577.93,-499.72 577.93,-491.3"/>
<polygon fill="#6a47c2" stroke="black" points="581.43,-491.16 577.93,-481.16 574.43,-491.16 581.43,-491.16"/>
</g>
<!-- vkimexp_auth -->
<g id="node10" class="node">
<title>vkimexp_auth</title><style>.edge>path:hover{stroke-width:8}</style>
<ellipse fill="#603db8" stroke="black" cx="108.93" cy="-243.64" rx="44.3" ry="18"/>
<text text-anchor="middle" x="108.93" y="-241.14" font-family="Helvetica,sans-Serif" font-size="10.00" fill="#ffffff">vkimexp.auth</text>
</g>
<!-- vkimexp_auth&#45;&gt;vkimexp_core -->
<g id="edge16" class="edge">
<title>vkimexp_auth&#45;&gt;vkimexp_core</title><style>.edge>path:hover{stroke-width:8}</style>
<path fill="none" stroke="black" d="M130.99,-227.82C147.24,-216.91 169.55,-201.93 187.49,-189.87"/>
<polygon fill="#603db8" stroke="black" points="189.56,-192.7 195.91,-184.22 185.66,-186.89 189.56,-192.7"/>
</g>
<!-- vkimexp_cli&#45;&gt;vkimexp___main__ -->
<g id="edge17" class="edge">
<title>vkimexp_cli&#45;&gt;vkimexp___main__</title><style>.edge>path:hover{stroke-width:8}</style>
<path fill="none" stroke="black" d="M217.93,-78.08C217.93,-70.5 217.93,-61.39 217.93,-52.74"/>
<polygon fill="#5838a8" stroke="black" points="221.43,-52.56 217.93,-42.56 214.43,-52.56 221.43,-52.56"/>
</g>
<!-- vkimexp_common&#45;&gt;vkimexp_auth -->
<g id="edge18" class="edge">
<title>vkimexp_common&#45;&gt;vkimexp_auth</title><style>.edge>path:hover{stroke-width:8}</style>
<path fill="none" stroke="black" d="M318.44,-307.09C269.12,-294.5 190.85,-274.19 161.93,-264.85 157.65,-263.47 153.21,-261.94 148.81,-260.35"/>
<polygon fill="#4505e5" stroke="black" points="149.88,-257.02 139.29,-256.84 147.46,-263.59 149.88,-257.02"/>
</g>
<!-- vkimexp_common&#45;&gt;vkimexp_cli -->
<g id="edge19" class="edge">
<title>vkimexp_common&#45;&gt;vkimexp_cli</title><style>.edge>path:hover{stroke-width:8}</style>
<path fill="none" stroke="black" d="M390.93,-242.64C375.02,-177 302.2,-133.95 256.26,-112.81"/>
<polygon fill="#4505e5" stroke="black" points="257.45,-109.51 246.89,-108.63 254.6,-115.9 257.45,-109.51"/>
</g>
<!-- vkimexp_common&#45;&gt;vkimexp_core -->
<g id="edge20" class="edge">
<title>vkimexp_common&#45;&gt;vkimexp_core</title><style>.edge>path:hover{stroke-width:8}</style>
<path fill="none" stroke="black" d="M374.4,-301.18C384.5,-286.65 395.82,-264.8 390.93,-244.64"/>
<path fill="none" stroke="black" d="M390.93,-242.64C379.04,-193.58 318.28,-177.08 272.1,-171.7"/>
<polygon fill="#4505e5" stroke="black" points="272.2,-168.19 261.89,-170.66 271.49,-175.16 272.2,-168.19"/>
</g>
<!-- vkimexp_common&#45;&gt;vkimexp_handler -->
<g id="edge21" class="edge">
<title>vkimexp_common&#45;&gt;vkimexp_handler</title><style>.edge>path:hover{stroke-width:8}</style>
<path fill="none" stroke="black" d="M382.2,-301.97C395.78,-291.82 413.61,-278.5 428.66,-267.26"/>
<polygon fill="#4505e5" stroke="black" points="430.77,-270.05 436.69,-261.26 426.58,-264.44 430.77,-270.05"/>
</g>
<!-- vkimexp_common&#45;&gt;vkimexp_printer -->
<g id="edge22" class="edge">
<title>vkimexp_common&#45;&gt;vkimexp_printer</title><style>.edge>path:hover{stroke-width:8}</style>
<path fill="none" stroke="black" d="M352.12,-300.87C347.88,-292.7 342.67,-282.67 337.84,-273.36"/>
<polygon fill="#4505e5" stroke="black" points="340.89,-271.64 333.18,-264.38 334.68,-274.87 340.89,-271.64"/>
</g>
<!-- vkimexp_common&#45;&gt;vkimexp_writer -->
<g id="edge23" class="edge">
<title>vkimexp_common&#45;&gt;vkimexp_writer</title><style>.edge>path:hover{stroke-width:8}</style>
<path fill="none" stroke="black" d="M332.34,-303.21C309.79,-291.67 278.21,-275.5 253.94,-263.07"/>
<polygon fill="#4505e5" stroke="black" points="255.52,-259.95 245.03,-258.51 252.33,-266.18 255.52,-259.95"/>
</g>
<!-- vkimexp_core&#45;&gt;vkimexp_cli -->
<g id="edge24" class="edge">
<title>vkimexp_core&#45;&gt;vkimexp_cli</title><style>.edge>path:hover{stroke-width:8}</style>
<path fill="none" stroke="black" d="M217.93,-150.12C217.93,-142.41 217.93,-133.14 217.93,-124.54"/>
<polygon fill="#503399" stroke="black" points="221.43,-124.53 217.93,-114.53 214.43,-124.53 221.43,-124.53"/>
</g>
<!-- vkimexp_handler&#45;&gt;vkimexp_core -->
<g id="edge25" class="edge">
<title>vkimexp_handler&#45;&gt;vkimexp_core</title><style>.edge>path:hover{stroke-width:8}</style>
<path fill="none" stroke="black" d="M427.68,-230.44C420.26,-227.69 412.35,-224.86 404.93,-222.43 357.4,-206.82 302.21,-191.52 264.17,-181.4"/>
<polygon fill="#5435a1" stroke="black" points="264.96,-177.99 254.4,-178.81 263.17,-184.75 264.96,-177.99"/>
</g>
<!-- vkimexp_printer&#45;&gt;vkimexp_core -->
<g id="edge26" class="edge">
<title>vkimexp_printer&#45;&gt;vkimexp_core</title><style>.edge>path:hover{stroke-width:8}</style>
<path fill="none" stroke="black" d="M299.63,-226.39C284.3,-215.7 264.1,-201.61 247.62,-190.12"/>
<polygon fill="#603db8" stroke="black" points="249.59,-187.23 239.38,-184.38 245.58,-192.97 249.59,-187.23"/>
</g>
<!-- vkimexp_writer&#45;&gt;vkimexp_core -->
<g id="edge27" class="edge">
<title>vkimexp_writer&#45;&gt;vkimexp_core</title><style>.edge>path:hover{stroke-width:8}</style>
<path fill="none" stroke="black" d="M217.93,-225.29C217.93,-216.81 217.93,-206.4 217.93,-196.88"/>
<polygon fill="#5c3ab0" stroke="black" points="221.43,-196.65 217.93,-186.65 214.43,-196.65 221.43,-196.65"/>
</g>
<!-- yt_dlp -->
<g id="node17" class="node">
<title>yt_dlp</title><style>.edge>path:hover{stroke-width:8}</style>
<ellipse fill="#c247b1" stroke="black" cx="53.93" cy="-390.85" rx="27" ry="18"/>
<text text-anchor="middle" x="53.93" y="-388.35" font-family="Helvetica,sans-Serif" font-size="10.00" fill="#ffffff">yt_dlp</text>
</g>
<!-- yt_dlp&#45;&gt;vkimexp_auth -->
<g id="edge28" class="edge">
<title>yt_dlp&#45;&gt;vkimexp_auth</title><style>.edge>path:hover{stroke-width:8}</style>
<path fill="none" stroke="black" d="M66.71,-374.57C74.54,-364.46 84.13,-350.58 89.93,-336.85 98.75,-315.99 103.59,-290.69 106.17,-271.88"/>
<polygon fill="#c247b1" stroke="black" points="109.66,-272.25 107.42,-261.89 102.71,-271.39 109.66,-272.25"/>
</g>
<!-- yt_dlp&#45;&gt;vkimexp_cli -->
<g id="edge29" class="edge">
<title>yt_dlp&#45;&gt;vkimexp_cli</title><style>.edge>path:hover{stroke-width:8}</style>
<path fill="none" stroke="black" d="M40.18,-374.92C31.97,-364.95 22.31,-351.1 17.93,-336.85 -4.08,-265.27 -12.44,-225.74 36.93,-169.43"/>
<path fill="none" stroke="black" d="M36.93,-167.43C70.61,-128.03 129.16,-110.71 170.54,-103.15"/>
<polygon fill="#c247b1" stroke="black" points="171.13,-106.6 180.4,-101.48 169.95,-99.7 171.13,-106.6"/>
</g>
</g>
</svg>
